<svg xmlns="http://www.w3.org/2000/svg" viewBox="0 0 64 64" shape-rendering="crispEdges">
  <rect width="64" height="64" fill="transparent"/>
  <g fill="#3a2a18">
    <rect x="14" y="10" width="6" height="6"/>
    <rect x="44" y="10" width="6" height="6"/>
    <rect x="12" y="16" width="40" height="34"/>
    <rect x="10" y="50" width="44" height="6"/>
  </g>
  <g fill="#f4e6c4">
    <rect x="16" y="20" width="32" height="26"/>
  </g>
  <g fill="#3a2a18">
    <rect x="20" y="26" width="2" height="2"/>
    <rect x="26" y="26" width="2" height="2"/>
    <rect x="22" y="28" width="2" height="2"/>
    <rect x="24" y="28" width="2" height="2"/>
    <rect x="20" y="30" width="2" height="2"/>
    <rect x="26" y="30" width="2" height="2"/>
    <rect x="38" y="26" width="2" height="2"/>
    <rect x="44" y="26" width="2" height="2"/>
    <rect x="40" y="28" width="2" height="2"/>
    <rect x="42" y="28" width="2" height="2"/>
    <rect x="38" y="30" width="2" height="2"/>
    <rect x="44" y="30" width="2" height="2"/>
    <rect x="28" y="38" width="8" height="2"/>
    <rect x="26" y="40" width="2" height="2"/>
    <rect x="36" y="40" width="2" height="2"/>
  </g>
  <g fill="#3a2a18">
    <rect x="50" y="6" width="2" height="2"/>
    <rect x="52" y="4" width="2" height="2"/>
    <rect x="54" y="6" width="2" height="2"/>
    <rect x="54" y="8" width="2" height="2"/>
    <rect x="52" y="10" width="2" height="2"/>
    <rect x="52" y="14" width="2" height="2"/>
  </g>
</svg>
