<svg xmlns="http://www.w3.org/2000/svg" viewBox="0 0 64 64" shape-rendering="crispEdges">
  <rect width="64" height="64" fill="transparent"/>
  <g fill="#3a2a18">
    <rect x="8" y="44" width="6" height="6"/>
    <rect x="48" y="44" width="6" height="6"/>
    <rect x="10" y="38" width="44" height="14"/>
    <rect x="6" y="52" width="52" height="4"/>
  </g>
  <g fill="#f4e6c4">
    <rect x="12" y="40" width="40" height="10"/>
  </g>
  <g fill="#3a2a18">
    <rect x="18" y="42" width="2" height="2"/>
    <rect x="22" y="42" width="2" height="2"/>
    <rect x="20" y="44" width="2" height="2"/>
    <rect x="18" y="46" width="2" height="2"/>
    <rect x="22" y="46" width="2" height="2"/>
    <rect x="30" y="42" width="2" height="2"/>
    <rect x="34" y="42" width="2" height="2"/>
    <rect x="32" y="44" width="2" height="2"/>
    <rect x="30" y="46" width="2" height="2"/>
    <rect x="34" y="46" width="2" height="2"/>
    <rect x="40" y="44" width="6" height="2"/>
  </g>
  <g fill="#8b6f47">
    <rect x="4" y="56" width="56" height="2"/>
    <rect x="2" y="58" width="60" height="2"/>
  </g>
</svg>
